<svg width="304" height="40" viewBox="0 0 304 40" fill="none" xmlns="http://www.w3.org/2000/svg">
<g filter="url(#filter0_d_127_249)">
<rect x="2" width="300" height="36" rx="10" fill="#FAFAFA" fill-opacity="0.93"/>
<g clip-path="url(#clip0_127_249)">
<path d="M22.5322 23.0332C23.9297 23.0332 25.2393 22.6113 26.3291 21.8906L30.1787 25.749C30.4336 25.9951 30.7588 26.1182 31.1104 26.1182C31.8398 26.1182 32.376 25.5469 32.376 24.8262C32.376 24.4922 32.2617 24.167 32.0156 23.9209L28.1924 20.0801C28.9834 18.9551 29.4492 17.5928 29.4492 16.1162C29.4492 12.3105 26.3379 9.19922 22.5322 9.19922C18.7354 9.19922 15.6152 12.3105 15.6152 16.1162C15.6152 19.9219 18.7266 23.0332 22.5322 23.0332ZM22.5322 21.1875C19.7461 21.1875 17.4609 18.9023 17.4609 16.1162C17.4609 13.3301 19.7461 11.0449 22.5322 11.0449C25.3184 11.0449 27.6035 13.3301 27.6035 16.1162C27.6035 18.9023 25.3184 21.1875 22.5322 21.1875Z" fill="#3C3C43" fill-opacity="0.6"/>
</g>
<path d="M43.4536 24.2822C46.1265 24.2822 47.8779 22.8877 47.8779 20.6465V20.6382C47.8779 18.9116 46.8901 17.9072 44.3916 17.3511L43.0635 17.0522C41.4365 16.6953 40.7808 16.0479 40.7808 15.0933V15.085C40.7808 13.8315 41.9346 13.126 43.4287 13.1177C44.9893 13.1094 45.9854 13.8896 46.1514 14.9438L46.168 15.0518H47.6621L47.6538 14.9355C47.5293 13.1509 45.8608 11.7397 43.4702 11.7397C40.9966 11.7397 39.2617 13.1426 39.2534 15.1265V15.1348C39.2534 16.8696 40.291 17.9736 42.6899 18.5049L44.0181 18.7954C45.6616 19.1606 46.3506 19.8413 46.3506 20.8374V20.8457C46.3506 22.0659 45.1636 22.9043 43.5366 22.9043C41.8101 22.9043 40.5649 22.1489 40.457 20.9536L40.4487 20.8623H38.9546L38.9629 20.9536C39.1372 22.9043 40.8306 24.2822 43.4536 24.2822ZM53.4299 24.1577C55.5383 24.1577 56.8166 22.9624 57.1237 21.7505L57.1403 21.6841H55.696L55.6628 21.7588C55.4221 22.2983 54.675 22.8711 53.4631 22.8711C51.8693 22.8711 50.8483 21.792 50.8068 19.9409H57.2483V19.3765C57.2483 16.7036 55.7707 14.894 53.3386 14.894C50.9065 14.894 49.3293 16.7866 49.3293 19.5508V19.5591C49.3293 22.3647 50.8733 24.1577 53.4299 24.1577ZM53.3303 16.1807C54.6501 16.1807 55.6296 17.019 55.779 18.7871H50.8317C50.9895 17.0854 52.0022 16.1807 53.3303 16.1807ZM61.5385 24.1577C62.7421 24.1577 63.6801 23.6348 64.2445 22.6802H64.3774V24H65.8217V17.874C65.8217 16.0146 64.6015 14.894 62.4184 14.894C60.5092 14.894 59.1479 15.8403 58.9154 17.2432L58.9071 17.293H60.3515L60.3598 17.2681C60.5922 16.5708 61.2978 16.1724 62.3686 16.1724C63.705 16.1724 64.3774 16.77 64.3774 17.874V18.6875L61.8124 18.8452C59.7289 18.9697 58.5502 19.8911 58.5502 21.4849V21.5015C58.5502 23.1284 59.8368 24.1577 61.5385 24.1577ZM60.0278 21.4683V21.4517C60.0278 20.5635 60.6254 20.082 61.9867 19.999L64.3774 19.8496V20.6631C64.3774 21.9414 63.3066 22.9043 61.8373 22.9043C60.7997 22.9043 60.0278 22.373 60.0278 21.4683ZM68.0533 24H69.4977V18.4551C69.4977 17.1436 70.4772 16.272 71.8551 16.272C72.1705 16.272 72.4445 16.3052 72.7433 16.355V14.9521C72.6022 14.9272 72.295 14.894 72.0211 14.894C70.8092 14.894 69.9708 15.4419 69.6305 16.3799H69.4977V15.0518H68.0533V24ZM77.5316 24.1577C79.6815 24.1577 80.8851 23.0039 81.2503 21.3853L81.2669 21.2939L79.8392 21.3022L79.8226 21.3521C79.4906 22.3481 78.7269 22.8794 77.5233 22.8794C75.9295 22.8794 74.9002 21.5596 74.9002 19.501V19.4844C74.9002 17.4673 75.9129 16.1724 77.5233 16.1724C78.8099 16.1724 79.6068 16.8862 79.8309 17.7661L79.8392 17.791H81.2752L81.2669 17.7412C81.0013 16.1475 79.6981 14.894 77.5233 14.894C75.0164 14.894 73.4227 16.7036 73.4227 19.4844V19.501C73.4227 22.3398 75.0247 24.1577 77.5316 24.1577ZM83.0586 24H84.503V18.7041C84.503 17.1353 85.4078 16.1724 86.8355 16.1724C88.2632 16.1724 88.9273 16.9443 88.9273 18.5547V24H90.3716V18.2061C90.3716 16.0811 89.251 14.894 87.2422 14.894C85.9224 14.894 85.084 15.4502 84.6358 16.3965H84.503V11.499H83.0586V24Z" fill="#3C3C43" fill-opacity="0.6"/>
</g>
<defs>
<filter id="filter0_d_127_249" x="0" y="0" width="304" height="40" filterUnits="userSpaceOnUse" color-interpolation-filters="sRGB">
<feFlood flood-opacity="0" result="BackgroundImageFix"/>
<feColorMatrix in="SourceAlpha" type="matrix" values="0 0 0 0 0 0 0 0 0 0 0 0 0 0 0 0 0 0 127 0" result="hardAlpha"/>
<feOffset dy="2"/>
<feGaussianBlur stdDeviation="1"/>
<feComposite in2="hardAlpha" operator="out"/>
<feColorMatrix type="matrix" values="0 0 0 0 0 0 0 0 0 0 0 0 0 0 0 0 0 0 0.25 0"/>
<feBlend mode="normal" in2="BackgroundImageFix" result="effect1_dropShadow_127_249"/>
<feBlend mode="normal" in="SourceGraphic" in2="effect1_dropShadow_127_249" result="shape"/>
</filter>
<clipPath id="clip0_127_249">
<rect width="28" height="28" fill="white" transform="translate(10 4)"/>
</clipPath>
</defs>
</svg>
